<?xml version="1.0" encoding="UTF-8"?>
<svg width="4px" height="8px" viewBox="0 0 4 8" version="1.1" xmlns="http://www.w3.org/2000/svg" xmlns:xlink="http://www.w3.org/1999/xlink" style="transform: rotateZ(90deg); fill: #000; transform-origin: center;">
    <g id="Symbols" stroke="none" stroke-width="1" fill="none" fill-rule="evenodd">
        <g id="arrows/right-(active)" fill="#000000">
            <path d="M4,4.00000024 C4,4.06947238 3.97709032,4.13092853 3.93127136,4.18436867 L0.728522481,7.91984002 C0.682703116,7.97328017 0.630011339,8 0.57044674,8 C0.51088214,8 0.458189953,7.97328017 0.412370999,7.91984002 L0.0687286366,7.5190382 C0.0229096824,7.46559806 0,7.40414191 0,7.33466929 C0,7.26519715 0.0229096824,7.20374101 0.0687286366,7.15030086 L2.76975942,4.00000024 L0.0687286366,0.84969914 C0.0229096824,0.796258993 0,0.734802849 0,0.665330707 C0,0.595858565 0.0229096824,0.534401942 0.0687286366,0.480961795 L0.412370999,0.0801604588 C0.458189953,0.0267198337 0.51088214,0 0.57044674,0 C0.630011339,0 0.682703116,0.0267198337 0.728522481,0.0801604588 L3.93127136,3.81563133 C3.97709032,3.86907147 4,3.93052762 4,4.00000024 Z" id="arrow-right-(active)"></path>
        </g>
    </g>
</svg>