<svg width="20" height="20" viewBox="0 0 20 20" xmlns="http://www.w3.org/2000/svg"><title>social share</title><path d="M14.295 5.902a3.1 3.1 0 0 0 1.915.665c1.758 0 3.184-1.47 3.184-3.283C19.394 1.47 17.968 0 16.21 0c-1.758 0-3.185 1.47-3.185 3.284v.002L5.166 7.205a3.11 3.11 0 0 0-1.982-.718C1.425 6.487 0 7.96 0 9.771c0 1.813 1.425 3.284 3.184 3.284.635 0 1.227-.195 1.724-.525l8.119 4.048v.002c0 1.814 1.425 3.284 3.184 3.284 1.759 0 3.184-1.47 3.184-3.284 0-1.814-1.425-3.284-3.184-3.284a3.1 3.1 0 0 0-1.915.665l-7.94-3.957c.004-.05.006-.099.008-.149l7.93-3.953z" fill="#000" fill-rule="evenodd"/></svg>