<svg width="13" height="13" viewBox="0 0 13 13" xmlns="http://www.w3.org/2000/svg"><title>bell</title><path d="M4.98 11.743c.035-.073.015-.126-.058-.16a1.047 1.047 0 0 1-.56-.616 1.047 1.047 0 0 1 .034-.831c.034-.073.014-.127-.059-.161s-.126-.015-.16.058c-.156.334-.171.673-.045 1.018.125.345.355.595.688.75.073.035.127.015.16-.058zM1.339 7.642l8.907 4.154c-.576-1.937-.297-4.121.836-6.551.109-.233.166-.499.171-.796a2.888 2.888 0 0 0-.144-.927c-.1-.32-.293-.633-.575-.94a3.335 3.335 0 0 0-1.06-.757A3.335 3.335 0 0 0 8.21 1.5c-.416-.019-.78.036-1.09.164-.31.128-.577.29-.801.485-.225.196-.392.41-.5.643-1.134 2.43-2.627 4.047-4.481 4.85zm10.154 4.735a.93.93 0 0 1-.548.495.93.93 0 0 1-.738-.027l-3.07-1.431c-.225.484-.59.818-1.092 1a1.865 1.865 0 0 1-1.48-.064 1.865 1.865 0 0 1-1-1.092 1.865 1.865 0 0 1 .064-1.48L.558 8.346a.93.93 0 0 1-.495-.548.93.93 0 0 1 .027-.738c.318-.085.62-.19.905-.312.285-.123.607-.305.964-.547a6.792 6.792 0 0 0 1.017-.848c.32-.323.654-.74 1.001-1.252.347-.511.668-1.084.965-1.72.323-.694.891-1.214 1.704-1.561.812-.347 1.682-.382 2.61-.105a.753.753 0 0 1 .07-.293.7.7 0 0 1 .409-.376.7.7 0 0 1 .555.025.7.7 0 0 1 .377.41.7.7 0 0 1-.026.555.753.753 0 0 1-.18.241c.81.533 1.342 1.222 1.598 2.067.257.846.223 1.615-.1 2.31-.297.635-.53 1.25-.698 1.844a8.823 8.823 0 0 0-.316 1.57c-.041.454-.04.896.004 1.325.045.43.112.793.201 1.09.09.298.203.596.342.894z" fill="#000" fill-rule="evenodd" opacity=".6"/></svg>