<?xml version="1.0" encoding="UTF-8"?>
<svg width="13px" height="13px" viewBox="0 0 13 13" version="1.1" xmlns="http://www.w3.org/2000/svg" xmlns:xlink="http://www.w3.org/1999/xlink">
    <!-- Generator: Sketch 41.2 (35397) - http://www.bohemiancoding.com/sketch -->
    <title>bell</title>
    <desc>Created with Sketch.</desc>
    <defs></defs>
    <g id="Design" stroke="none" stroke-width="1" fill="none" fill-rule="evenodd">
        <g id="blog" transform="translate(-1397.000000, -270.000000)" fill="#000000">
            <path d="M1401.98086,281.743287 C1402.01494,281.670198 1401.99544,281.616612 1401.92235,281.58253 C1401.65284,281.456852 1401.46627,281.251676 1401.36266,280.967002 C1401.25904,280.682327 1401.27008,280.405232 1401.39575,280.135715 C1401.42984,280.062626 1401.41033,280.00904 1401.33724,279.974958 C1401.26415,279.940876 1401.21057,279.960379 1401.17649,280.033469 C1401.02099,280.366939 1401.00601,280.706153 1401.13157,281.051111 C1401.25712,281.396069 1401.48664,281.646298 1401.82011,281.801798 C1401.89319,281.83588 1401.94678,281.816376 1401.98086,281.743287 L1401.98086,281.743287 L1401.98086,281.743287 Z M1398.33756,277.641873 L1407.24533,281.795631 C1406.66926,279.85859 1406.94784,277.67496 1408.08107,275.244739 C1408.1897,275.011767 1408.24672,274.746382 1408.25211,274.448582 C1408.25751,274.150782 1408.20961,273.842036 1408.10842,273.522344 C1408.00723,273.202652 1407.81546,272.889381 1407.5331,272.582531 C1407.25074,272.275682 1406.89715,272.023206 1406.47231,271.825103 C1406.04748,271.627001 1405.62679,271.51842 1405.21023,271.499359 C1404.79367,271.480299 1404.43042,271.534758 1404.12048,271.662739 C1403.81054,271.790719 1403.54324,271.952485 1403.31858,272.148039 C1403.09392,272.343592 1402.92727,272.557855 1402.81864,272.790827 C1401.6854,275.221047 1400.19171,276.838063 1398.33756,277.641873 L1398.33756,277.641873 L1398.33756,277.641873 Z M1408.49241,282.377157 C1408.38165,282.614697 1408.199,282.779788 1407.94447,282.87243 C1407.68993,282.965073 1407.4439,282.95601 1407.20636,282.845243 L1404.1366,281.413794 C1403.91081,281.898011 1403.54673,282.231543 1403.04436,282.414389 C1402.542,282.597236 1402.04871,282.575762 1401.56449,282.349968 C1401.08027,282.124174 1400.74674,281.760094 1400.56389,281.257727 C1400.38105,280.755361 1400.40252,280.26207 1400.62832,279.777853 L1397.55856,278.346404 C1397.32102,278.235637 1397.15593,278.052987 1397.06329,277.798455 C1396.97065,277.543923 1396.97971,277.297887 1397.09048,277.060347 C1397.40835,276.974994 1397.70992,276.870919 1397.9952,276.748123 C1398.28048,276.625326 1398.6019,276.442914 1398.95946,276.200886 C1399.31702,275.958857 1399.65599,275.676184 1399.97638,275.352866 C1400.29677,275.029548 1400.63037,274.612288 1400.97719,274.101088 C1401.32402,273.589887 1401.64547,273.016805 1401.94156,272.381841 C1402.26534,271.687493 1402.83346,271.166864 1403.64591,270.819955 C1404.45835,270.473045 1405.32837,270.438 1406.25595,270.714819 C1406.25987,270.610984 1406.28314,270.513385 1406.32574,270.422024 C1406.41095,270.239301 1406.54733,270.113808 1406.73488,270.045545 C1406.92243,269.977282 1407.10756,269.985754 1407.29029,270.070959 C1407.47301,270.156164 1407.5985,270.292542 1407.66676,270.480092 C1407.73503,270.667642 1407.72656,270.852779 1407.64135,271.035502 C1407.59875,271.126864 1407.53894,271.207421 1407.46192,271.277173 C1408.27021,271.809805 1408.8026,272.498801 1409.05908,273.344161 C1409.31557,274.189522 1409.28192,274.959376 1408.95814,275.653725 C1408.66205,276.288689 1408.42967,276.903308 1408.261,277.497584 C1408.09234,278.091859 1407.98713,278.615625 1407.9454,279.068882 C1407.90366,279.522138 1407.90501,279.963506 1407.94944,280.392986 C1407.99387,280.822466 1408.06074,281.18594 1408.15005,281.483407 C1408.23935,281.780874 1408.35348,282.078791 1408.49241,282.377157 L1408.49241,282.377157 L1408.49241,282.377157 Z" id="bell"></path>
        </g>
    </g>
</svg>