<svg width="17" height="18" viewBox="0 0 17 18" xmlns="http://www.w3.org/2000/svg"><title>Shape</title><path d="M14.234 8.995c0-.784-.15-1.533-.453-2.246a5.818 5.818 0 0 0-1.224-1.85 5.757 5.757 0 0 0-1.832-1.236A5.56 5.56 0 0 0 8.5 3.206a5.56 5.56 0 0 0-2.225.457A5.757 5.757 0 0 0 4.443 4.9 5.818 5.818 0 0 0 3.22 6.75a5.705 5.705 0 0 0-.453 2.246c0 .784.15 1.533.453 2.246.302.714.71 1.33 1.224 1.85.514.519 1.125.93 1.832 1.236a5.56 5.56 0 0 0 2.225.457 5.56 5.56 0 0 0 2.225-.457 5.757 5.757 0 0 0 1.832-1.237 5.818 5.818 0 0 0 1.224-1.849 5.705 5.705 0 0 0 .453-2.246zm2.748 2.784a.277.277 0 0 1-.199.2l-2.907.966v3.075a.316.316 0 0 1-.13.261c-.099.067-.195.08-.288.04l-2.907-.944-1.792 2.492A.31.31 0 0 1 8.5 18a.31.31 0 0 1-.259-.13L6.45 15.376l-2.907.945c-.093.04-.19.026-.289-.04a.316.316 0 0 1-.13-.262v-3.075L.218 11.98a.277.277 0 0 1-.2-.201c-.032-.114-.02-.211.04-.292L1.85 8.995.058 6.503a.322.322 0 0 1-.04-.292.277.277 0 0 1 .199-.201l2.907-.965V1.97c0-.107.043-.194.13-.261.099-.067.195-.08.288-.04l2.907.944L8.241.121C8.301.04 8.387 0 8.5 0c.113 0 .2.04.259.12l1.792 2.493 2.907-.945c.093-.04.19-.026.289.04.086.068.13.155.13.262v3.075l2.906.965c.106.034.173.1.2.201a.322.322 0 0 1-.04.292L15.15 8.995l1.792 2.492c.06.08.073.178.04.292z" fill="#000" fill-rule="evenodd"/></svg>