<svg width="23" height="20" viewBox="0 0 23 20" xmlns="http://www.w3.org/2000/svg"><title>heart o copy</title><path d="M20.635 6.333c0-.67-.089-1.261-.267-1.774-.177-.512-.405-.92-.682-1.221a3.275 3.275 0 0 0-1.01-.738 4.477 4.477 0 0 0-1.166-.384c-.38-.067-.785-.1-1.215-.1-.43 0-.893.106-1.39.317a6.34 6.34 0 0 0-1.37.793c-.417.319-.775.616-1.072.893a9.597 9.597 0 0 0-.744.763.743.743 0 0 1-.608.273.743.743 0 0 1-.608-.273 9.597 9.597 0 0 0-.744-.763 14.404 14.404 0 0 0-1.072-.893 6.34 6.34 0 0 0-1.37-.793c-.497-.211-.96-.317-1.39-.317-.43 0-.834.033-1.215.1-.38.066-.769.194-1.165.384-.397.19-.734.436-1.011.738-.277.302-.504.709-.682 1.221-.178.513-.267 1.104-.267 1.774 0 1.389.773 2.856 2.32 4.402l7.204 6.944 7.193-6.932c1.554-1.554 2.33-3.025 2.33-4.414zm1.587 0c0 1.827-.946 3.687-2.84 5.58l-7.725 7.44a.742.742 0 0 1-.546.224.742.742 0 0 1-.546-.223l-7.738-7.466a4.093 4.093 0 0 1-.34-.322 12.75 12.75 0 0 1-.689-.812 10.974 10.974 0 0 1-.843-1.21 7.51 7.51 0 0 1-.664-1.5A5.432 5.432 0 0 1 0 6.333c0-1.82.525-3.241 1.575-4.266C2.625 1.042 4.075.529 5.928.529c.512 0 1.035.089 1.568.267.534.177 1.03.417 1.488.719.46.302.854.585 1.185.85.33.264.644.545.942.843.298-.298.612-.579.943-.844.33-.264.725-.547 1.184-.849a6.349 6.349 0 0 1 1.488-.72A4.943 4.943 0 0 1 16.295.53c1.851 0 3.302.513 4.352 1.538 1.05 1.025 1.575 2.447 1.575 4.266z" fill="#000" fill-rule="evenodd"/></svg>