<?xml version="1.0" encoding="UTF-8"?>
<svg width="17px" height="21px" viewBox="0 0 17 21" version="1.1" xmlns="http://www.w3.org/2000/svg" xmlns:xlink="http://www.w3.org/1999/xlink">
    <!-- Generator: Sketch 42 (36781) - http://www.bohemiancoding.com/sketch -->
    <title>pin copy 2</title>
    <desc>Created with Sketch.</desc>
    <defs></defs>
    <g id="Page-1" stroke="none" stroke-width="1" fill="none" fill-rule="evenodd">
        <g id="blog" transform="translate(-933.000000, -304.000000)" fill="#000000">
            <g id="pin-copy-2" transform="translate(933.000000, 304.000000)">
                <path d="M0.495333333,10.2664132 C-0.016,11.1520685 1.94123871,12.9086983 4.29462352,14.3551828 C4.29195685,14.3598017 4.28813549,14.3637538 4.28546882,14.3683726 L2.28546882,17.8324742 C1.91746882,18.4698689 1.21078841,20.2912086 1.52948576,20.4752086 C1.8481831,20.6592086 3.07216936,19.1365356 3.44016936,18.4991409 L5.44016936,15.0350393 C5.44283603,15.0304205 5.44434799,15.025135 5.44701466,15.0205162 C7.87639947,16.3353649 10.3763048,17.1520685 10.8876382,16.2664132 C11.4303048,15.3264869 10.9752905,14.1492615 9.7302371,12.9377573 L13.1829038,6.9575632 C14.9266239,7.30535137 16.2369715,7.00109603 16.5636382,6.43529277 C17.6683048,4.52195398 7.276,-1.47804602 6.17133333,0.435292769 C5.812,1.05767636 6.21368096,2.32727786 7.39740108,3.64501448 L3.95673441,9.60442396 C2.28434763,9.13308283 1.038,9.32648691 0.495333333,10.2664132 L0.495333333,10.2664132 L0.495333333,10.2664132 Z" id="Shape"></path>
            </g>
        </g>
    </g>
</svg>