<?xml version="1.0" encoding="UTF-8"?>
<svg width="39px" height="60px" viewBox="0 0 39 60" version="1.1" xmlns="http://www.w3.org/2000/svg"
     xmlns:xlink="http://www.w3.org/1999/xlink">
    <g stroke="none" stroke-width="1" fill="none" fill-rule="evenodd">
        <g transform="translate(-564.000000, -647.000000)" fill="#FFFFFF">
            <g id="Group-3" transform="translate(564.000000, 647.000000)">
                <path d="M29.9486719,6.38742187 L29.9486719,0 L0.0221484375,6.56179687 L0.0221484375,60 L38.6496094,60 L38.6496094,6.38742187 L29.9486719,6.38742187 Z M28.1657813,2.21589844 L28.1657813,6.38742187 L9.14121094,6.38742187 L28.1657813,2.21589844 Z M36.8668359,58.2172266 L1.80503906,58.2172266 L1.80503906,8.17019531 L28.1658984,8.17019531 L29.0573438,8.17019531 L36.8669531,8.17019531 L36.8669531,58.2172266 L36.8668359,58.2172266 Z"></path>
                <path d="M30.3465234,20.3497266 L22.7384766,19.2440625 L19.3360547,12.3499219 L15.9336328,19.2440625 L8.32558594,20.3497266 L13.8309375,25.7158594 L12.5313281,33.2933203 L19.3361719,29.7158203 L26.1410156,33.2933203 L24.8412891,25.7158594 L30.3465234,20.3497266 Z M19.3359375,27.7016016 L14.8988672,30.0343359 L15.74625,25.0935938 L12.1565625,21.5944922 L17.1173437,20.8737891 L19.3359375,16.3783594 L21.5544141,20.8737891 L26.5153125,21.5944922 L22.925625,25.0935938 L23.7730078,30.0343359 L19.3359375,27.7016016 Z"></path>
                <rect x="7.38269531" y="36.8684766" width="23.90625" height="1.78277344"></rect>
                <rect x="24.9813281" y="41.6226562" width="6.30761719" height="1.78277344"></rect>
                <rect x="7.38269531" y="41.6226562" width="15.2216016" height="1.78277344"></rect>
                <rect x="7.38269531" y="46.3767188" width="23.90625" height="1.78277344"></rect>
                <rect x="12.9641016" y="51.1320703" width="12.7435547" height="1.78277344"></rect>
            </g>
        </g>
    </g>
</svg>