<?xml version="1.0" encoding="UTF-8"?>
<svg width="44px" height="60px" viewBox="0 0 44 60" version="1.1" xmlns="http://www.w3.org/2000/svg"
     xmlns:xlink="http://www.w3.org/1999/xlink">
    <g stroke="none" stroke-width="1" fill="none" fill-rule="evenodd">
        <g transform="translate(-849.000000, -647.000000)" fill="#FFFFFF">
            <g transform="translate(849.000000, 647.000000)">
                <g>
                    <path d="M42.9514118,4.96898437 L31.9768235,4.96898437 L28.6452941,4.96898437 C27.8007059,2.0475 25.1225882,0 22,0 C18.8774118,0 16.1994118,2.0475 15.3547059,4.96898437 L12.0231765,4.96898437 L1.04858824,4.96898437 C0.532,4.96898437 0.113294118,5.38605469 0.113294118,5.900625 L0.113294118,59.0683594 C0.113294118,59.5830469 0.532117647,60 1.04858824,60 L42.9514118,60 C43.468,60 43.8867059,59.5829297 43.8867059,59.0683594 L43.8867059,5.900625 C43.8867059,5.3859375 43.468,4.96898437 42.9514118,4.96898437 Z M12.9584706,9.87574219 L12.9584706,6.83226562 L16.0982353,6.83226562 C16.1027059,6.83226562 16.1070588,6.83167969 16.1115294,6.83167969 C16.132,6.83144531 16.1523529,6.83015625 16.1724706,6.82851562 C16.1832941,6.82769531 16.1941176,6.826875 16.2049412,6.82582031 C16.2251765,6.82359375 16.2449412,6.8203125 16.2648235,6.81679687 C16.2756471,6.81480469 16.2864706,6.81304687 16.2972941,6.81082031 C16.316,6.80671875 16.3343529,6.80179687 16.3527059,6.79664062 C16.3642353,6.79335937 16.3756471,6.79042969 16.3868235,6.78667969 C16.4038824,6.78117187 16.4204706,6.77472656 16.4370588,6.76839844 C16.4489412,6.76382812 16.4608235,6.759375 16.4724706,6.75433594 C16.4882353,6.74753906 16.5032941,6.73980469 16.5184706,6.7321875 C16.5302353,6.72632812 16.542,6.72058594 16.5534118,6.71414062 C16.5683529,6.70582031 16.5828235,6.69679687 16.5972941,6.68753906 C16.608,6.68085937 16.6188235,6.67429687 16.6292941,6.66703125 C16.644,6.65695312 16.658,6.64605469 16.6721176,6.63515625 C16.6815294,6.62800781 16.6909412,6.62085937 16.7,6.61324219 C16.7143529,6.60128906 16.7278824,6.58851562 16.7415294,6.575625 C16.7495294,6.56800781 16.7576471,6.56074219 16.7652941,6.55289062 C16.7788235,6.53917969 16.7914118,6.52488281 16.804,6.51035156 C16.8109412,6.50226562 16.8183529,6.49429687 16.8250588,6.48597656 C16.8369412,6.47144531 16.8478824,6.45632812 16.8588235,6.44097656 C16.8655294,6.43160156 16.8724706,6.42246094 16.8788235,6.41285156 C16.8884706,6.39832031 16.8972941,6.38332031 16.9061176,6.36808594 C16.9127059,6.35671875 16.9196471,6.34535156 16.9256471,6.33363281 C16.9328235,6.31980469 16.9395294,6.305625 16.9461176,6.29144531 C16.9525882,6.27738281 16.9591765,6.26355469 16.9650588,6.24914062 C16.9701176,6.23648437 16.9747059,6.22359375 16.9792941,6.21058594 C16.9851765,6.19394531 16.9910588,6.1771875 16.9958824,6.16019531 C16.9994118,6.14824219 17.0022353,6.13605469 17.0051765,6.12386719 C17.0096471,6.10558594 17.0138824,6.08730469 17.0174118,6.06855469 C17.0182353,6.06386719 17.0196471,6.05917969 17.0204706,6.05449219 C17.4297647,3.62566406 19.5237647,1.86292969 21.9997647,1.86292969 C24.4756471,1.86292969 26.5698824,3.62566406 26.9790588,6.054375 C26.9798824,6.05953125 26.9814118,6.06445312 26.9823529,6.06949219 C26.9851765,6.08472656 26.9885882,6.09996094 26.9922353,6.11496094 C26.9955294,6.12878906 26.9989412,6.1425 27.0028235,6.15609375 C27.0069412,6.17050781 27.0114118,6.18457031 27.0161176,6.19875 C27.0209412,6.21304687 27.0262353,6.22722656 27.0317647,6.24117187 C27.0367059,6.25371094 27.0417647,6.26613281 27.0471765,6.2784375 C27.054,6.29367187 27.0614118,6.30867187 27.0689412,6.32355469 C27.0743529,6.33398437 27.0795294,6.34441406 27.0852941,6.35460937 C27.0944706,6.37101562 27.1043529,6.38683594 27.1144706,6.40242187 C27.1198824,6.41074219 27.1248235,6.4190625 27.1304706,6.42726562 C27.1425882,6.44496094 27.1555294,6.46171875 27.1687059,6.47835937 C27.1731765,6.48410156 27.1774118,6.49019531 27.1822353,6.49570312 C27.2005882,6.51761719 27.2196471,6.53882812 27.2398824,6.55886719 C27.24,6.55898437 27.2401176,6.55910156 27.2402353,6.55921875 C27.2604706,6.57925781 27.2815294,6.59824219 27.3032941,6.61640625 C27.3116471,6.62332031 27.3205882,6.62953125 27.3292941,6.63632813 C27.3429412,6.646875 27.3564706,6.65742187 27.3707059,6.66714844 C27.3817647,6.67488281 27.3934118,6.68179687 27.4048235,6.68882812 C27.4172941,6.69667969 27.4297647,6.70453125 27.4425882,6.71167969 C27.4549412,6.71859375 27.4675294,6.72492188 27.4802353,6.73125 C27.4931765,6.7378125 27.5062353,6.74414062 27.5195294,6.75011719 C27.5322353,6.75585938 27.5450588,6.76101563 27.5581176,6.76617188 C27.5724706,6.77191406 27.5869412,6.77707031 27.6016471,6.78210938 C27.614,6.78621094 27.6262353,6.7903125 27.6388235,6.7940625 C27.6557647,6.79898438 27.6728235,6.80320313 27.6901176,6.8071875 C27.7009412,6.80964844 27.7115294,6.81234375 27.7225882,6.81457031 C27.7444706,6.81878906 27.7665882,6.82195313 27.7888235,6.82464844 C27.7956471,6.82546875 27.8025882,6.82675781 27.8094118,6.82734375 C27.8394118,6.83027344 27.8697647,6.83203125 27.9004706,6.83203125 C27.9009412,6.83203125 27.9014118,6.83191406 27.902,6.83191406 L31.0414118,6.83191406 L31.0414118,9.87539063 L31.0414118,12.4221094 L12.9584706,12.4221094 L12.9584706,9.87574219 Z M12.0231765,14.2857422 L31.9769412,14.2857422 C32.4935294,14.2857422 32.9122353,13.8686719 32.9122353,13.3541016 L32.9122353,10.8075 L38.0254118,10.8075 L38.0254118,45.2173828 L29.4827059,45.2173828 C28.9661176,45.2173828 28.5474118,45.6344531 28.5474118,46.1490234 L28.5474118,54.6583594 L5.97470588,54.6583594 L5.97470588,10.8075 L11.0878824,10.8075 L11.0878824,13.3541016 C11.0877647,13.8686719 11.5065882,14.2857422 12.0231765,14.2857422 Z M36.7024706,47.0807812 L30.4178824,53.3408203 L30.4178824,47.0807812 L36.7024706,47.0807812 Z M42.0161176,58.1366016 L1.98388235,58.1366016 L1.98388235,6.83226563 L11.0877647,6.83226563 L11.0877647,8.94410156 L5.03929412,8.94410156 C4.52270588,8.94410156 4.104,9.36117188 4.104,9.87574219 L4.104,55.59 C4.104,56.1046875 4.52282353,56.5216406 5.03929412,56.5216406 L29.4825882,56.5216406 C29.5134118,56.5216406 29.5442353,56.52 29.5748235,56.5170703 C29.5889412,56.5156641 29.6024706,56.5130859 29.6164706,56.5110938 C29.6327059,56.50875 29.6491765,56.506875 29.6651765,56.5035937 C29.6811765,56.5005469 29.6964706,56.4960938 29.7121176,56.4921094 C29.7261176,56.4885938 29.7402353,56.4855469 29.7538824,56.4814453 C29.7690588,56.476875 29.7837647,56.4711328 29.7988235,56.4657422 C29.8127059,56.4608203 29.8265882,56.4561328 29.8403529,56.450625 C29.8543529,56.4448828 29.8677647,56.4380859 29.8814118,56.4316406 C29.8954118,56.4250781 29.9096471,56.4188672 29.9232941,56.4114844 C29.9363529,56.4045703 29.9487059,56.3966016 29.9614118,56.3889844 C29.9749412,56.3808984 29.9885882,56.3732812 30.0017647,56.3644922 C30.0156471,56.3553516 30.0285882,56.3451562 30.0417647,56.3351953 C30.0529412,56.326875 30.0643529,56.3191406 30.0751765,56.3103516 C30.0975294,56.2920703 30.1188235,56.2728516 30.1392941,56.2525781 C30.1407059,56.2510547 30.1422353,56.25 30.1436471,56.2485937 L39.6216471,46.8076172 C39.6229412,46.8063281 39.6238824,46.8050391 39.6251765,46.80375 C39.6456471,46.783125 39.6651765,46.7617969 39.6836471,46.7394141 C39.6924706,46.7286328 39.7002353,46.7172656 39.7085882,46.7061328 C39.7185882,46.6928906 39.7289412,46.6798828 39.7381176,46.6661719 C39.7469412,46.6529297 39.7547059,46.6392187 39.7629412,46.6255078 C39.7704706,46.6130859 39.7782353,46.6007812 39.7851765,46.5880078 C39.7927059,46.5739453 39.7991765,46.5595313 39.8058824,46.5452344 C39.8121176,46.5319922 39.8187059,46.5189844 39.8244706,46.5055078 C39.8303529,46.4914453 39.8349412,46.4771484 39.8401176,46.4629688 C39.8452941,46.4485547 39.8509412,46.4341406 39.8554118,46.419375 C39.8597647,46.4050781 39.8629412,46.3906641 39.8664706,46.37625 C39.8702353,46.36125 39.8744706,46.3463672 39.8775294,46.3310156 C39.8809412,46.3141406 39.8829412,46.2972656 39.8852941,46.2801562 C39.8871765,46.2670312 39.8896471,46.2540234 39.8910588,46.2407812 C39.894,46.2100781 39.8957647,46.1791406 39.8956471,46.1483203 L39.8956471,9.87574219 C39.8956471,9.36105469 39.4768235,8.94410156 38.9603529,8.94410156 L32.912,8.94410156 L32.912,6.83226563 L42.0158824,6.83226563 L42.0158824,58.1366016 L42.0161176,58.1366016 Z"></path>
                    <path d="M22,17.8882031 C15.4328235,17.8882031 10.0901176,23.2100391 10.0901176,29.7515625 C10.0901176,36.2930859 15.4328235,41.6149219 22,41.6149219 C28.5671765,41.6149219 33.9098824,36.2930859 33.9098824,29.7515625 C33.9098824,23.2100391 28.5671765,17.8882031 22,17.8882031 Z M22,39.7515234 C16.4643529,39.7515234 11.9608235,35.2655859 11.9608235,29.7515625 C11.9608235,24.2375391 16.4643529,19.7516016 22,19.7516016 C27.5356471,19.7516016 32.0391765,24.2375391 32.0391765,29.7515625 C32.0391765,35.2655859 27.5356471,39.7515234 22,39.7515234 Z"></path>
                    <path d="M27.6497647,24.8690625 C27.2844706,24.5053125 26.6922353,24.5053125 26.3270588,24.8690625 L18.2587059,32.9061328 L15.9269412,30.5834766 C15.5616471,30.2197266 14.9694118,30.2197266 14.6042353,30.5834766 C14.2389412,30.9474609 14.2389412,31.5372656 14.6042353,31.9011328 L17.5972941,34.8825 C17.7798824,35.064375 18.0192941,35.1553125 18.2585882,35.1553125 C18.4978824,35.1553125 18.7374118,35.064375 18.9198824,34.8825 L27.6496471,26.1868359 C28.0150588,25.8228516 28.0150588,25.2330469 27.6497647,24.8690625 Z"></path>
                </g>
            </g>
        </g>
    </g>
</svg>