<?xml version="1.0" encoding="UTF-8"?>
<svg width="50px" height="60px" viewBox="0 0 50 60" version="1.1" xmlns="http://www.w3.org/2000/svg"
     xmlns:xlink="http://www.w3.org/1999/xlink">
    <g stroke="none" stroke-width="1" fill="none" fill-rule="evenodd">
        <g transform="translate(-1138.000000, -647.000000)" fill="#FFFFFF">
            <g transform="translate(1138.000000, 647.000000)">
                <path d="M25.1715729,59.9853379 C25.115827,59.9949767 25.0585002,60 25,60 C15.2550343,60 3.7511625,56.1653761 1.29289322,53.7071068 C-0.286146203,52.1280674 0.146373996,43.4776634 2.16794971,40.4452998 C3.03436604,39.1456753 4.21772074,38.4716125 6.46246098,37.7304247 C6.82185548,37.6117567 8.22839944,37.1688256 8.54689909,37.0652614 C9.41956819,36.7815021 10.1532866,36.5205293 10.8933697,36.2224223 C12.8003229,35.4542975 14.5864077,34.4950909 16.4187618,33.1862665 C16.8681744,32.8652575 17.4927245,32.9693492 17.8137335,33.4187618 C18.1347425,33.8681744 18.0306508,34.4927245 17.5812382,34.8137335 C15.6148814,36.2182741 13.6895034,37.2522873 11.6406303,38.0775777 C10.8531585,38.394773 10.0781992,38.6704145 9.16535091,38.9672386 C8.8332662,39.0752201 7.4326101,39.5162971 7.08953902,39.6295753 C5.23596504,40.2416045 4.38386525,40.7269778 3.83205029,41.5547002 C3.04281162,42.7385582 2.50706652,45.1336539 2.37375234,47.7999376 C2.26258603,50.0232637 2.50363813,52.0894246 2.70710678,52.2928932 C2.87458903,52.4603755 3.68206353,52.9384325 4.76194062,53.4583733 C6.14493545,54.1242597 7.8387119,54.8088114 9.69122777,55.4263167 C14.5241645,57.0372956 19.7724562,58 25,58 C25.0585002,58 25.115827,58.0050233 25.1715729,58.0146621 C25.2273187,58.0050233 25.2846456,58 25.3431458,58 C30.5706896,58 35.8189813,57.0372956 40.651918,55.4263167 C42.5044339,54.8088114 44.1982103,54.1242597 45.5812051,53.4583733 C46.6610822,52.9384325 47.4685567,52.4603755 47.636039,52.2928932 C47.8395076,52.0894246 48.0805597,50.0232637 47.9693934,47.7999376 C47.8360792,45.1336539 47.3003341,42.7385582 46.5110955,41.5547002 C45.9592805,40.7269778 45.1071807,40.2416045 43.2536067,39.6295753 C42.9105356,39.5162971 41.5098796,39.0752201 41.1777948,38.9672386 C40.2649466,38.6704145 39.4899873,38.394773 38.7025155,38.0775777 C36.6536423,37.2522873 34.7282644,36.2182741 32.7619076,34.8137335 C32.312495,34.4927245 32.2084033,33.8681744 32.5294123,33.4187618 C32.8504213,32.9693492 33.4749714,32.8652575 33.9243839,33.1862665 C35.756738,34.4950909 37.5428228,35.4542975 39.449776,36.2224223 C40.1898592,36.5205293 40.9235776,36.7815021 41.7962467,37.0652614 C42.1147463,37.1688256 43.5212903,37.6117567 43.8806848,37.7304247 C46.125425,38.4716125 47.3087797,39.1456753 48.175196,40.4452998 C50.1967718,43.4776634 50.629292,52.1280674 49.0502525,53.7071068 C46.5919832,56.1653761 35.0881114,60 25.3431458,60 C25.2846456,60 25.2273187,59.9949767 25.1715729,59.9853379 Z"></path>
                <path d="M25.5,2 L25,2 C19.5522847,2 15,6.55228475 15,16 C15,21.1372169 16.5020251,24.8481025 19.0627446,27.2740473 C20.9326279,29.0455156 23.3188388,30 25,30 C25.1638687,30 26,30 26,30 L26,32 C26,32 25.3015685,32 25,32 C22.8061612,32 19.9279491,30.8487152 17.6872554,28.7259527 C14.7159627,25.9110439 13,21.6716066 13,16 C13,5.44771525 18.4477153,7.79376563e-14 25,7.79376563e-14 C25.0997417,7.79376563e-14 26,0 26,0 L26,2 L25.5,2 L25,2 L25,4.35901315e-14 C25,4.35901315e-14 25.7465867,0 26,0 C32.5522847,0 38,5.44771525 38,16 C38,21.6716066 36.2840373,25.9110439 33.3127446,28.7259527 C31.0720509,30.8487152 28.1938388,32 26,32 C25.7491426,32 25,32 25,32 L25,30 C25,30 25.7518589,30 26,30 C27.6811612,30 30.0673721,29.0455156 31.9372554,27.2740473 C34.4979749,24.8481025 36,21.1372169 36,16 C36,6.55228475 31.4477153,2 26,2 L25.5,2 Z"></path>
            </g>
        </g>
    </g>
</svg>