<?xml version="1.0" encoding="UTF-8"?>
<svg width="50px" height="59px" viewBox="0 0 50 59" version="1.1" xmlns="http://www.w3.org/2000/svg"
     xmlns:xlink="http://www.w3.org/1999/xlink">
    <g stroke="none" stroke-width="1" fill="none" fill-rule="evenodd">
        <g transform="translate(-277.000000, -648.000000)" fill="#FFF">
            <g transform="translate(277.000000, 648.000000)">
                <path d="M45.8424919,3.39166009 L45.8424919,55.1708399 L17.7756615,55.1708399 L17.7756615,48.1159132 C17.7756615,47.2569972 17.0016719,46.5607082 16.0469074,46.5607082 C15.0921429,46.5607082 14.3181534,47.2569972 14.3181534,48.1159132 L14.3181534,56.726045 C14.3181534,57.584961 15.0921429,58.28125 16.0469074,58.28125 L47.571246,58.28125 C48.5260104,58.28125 49.3,57.584961 49.3,56.726045 L49.3,1.83645505 C49.3,0.977539017 48.5260104,0.28125 47.571246,0.28125 L16.028754,0.28125 C15.0739896,0.28125 14.3,0.977539017 14.3,1.83645505 L14.3,10.4466082 C14.3,11.3055243 15.0739896,12.0018133 16.028754,12.0018133 C16.9835185,12.0018133 17.7575081,11.3055243 17.7575081,10.4466082 L17.7575081,3.39166009 L45.8424919,3.39166009 Z"
                      id="Path-2"></path>
                <path d="M0.300707111,30.7232229 C0.30023677,30.7382437 0.3,30.7533179 0.3,30.7684426 C0.3,31.6259714 1.06111593,32.3211358 2,32.3211358 L28.7968174,32.3211358 L26.698899,34.2372675 C26.0350077,34.8436319 26.0350077,35.8267428 26.698899,36.4331073 C27.3627903,37.0394717 28.4391707,37.0394717 29.103062,36.4331073 L33.7981516,32.1448521 C34.3734201,31.8675338 34.716982,31.3011639 34.7029969,30.7232229 C34.716982,30.1452819 34.3734201,29.578912 33.7981516,29.3015938 L29.103062,25.0133386 C28.4391707,24.4069742 27.3627903,24.4069742 26.698899,25.0133386 C26.0350077,25.619703 26.0350077,26.602814 26.698899,27.2091784 L28.7968174,29.12531 L2,29.12531 C1.06111593,29.12531 0.3,29.8204745 0.3,30.6780033 C0.3,30.693128 0.30023677,30.7082022 0.300707111,30.7232229 Z"></path>
            </g>
        </g>
    </g>
</svg>