<svg width="21" height="14" viewBox="0 0 21 14" xmlns="http://www.w3.org/2000/svg"><title>eye_icon</title><path d="M19.5 7.05c-1.188-1.844-2.676-3.223-4.465-4.137.477.813.715 1.692.715 2.637 0 1.445-.514 2.682-1.541 3.709-1.027 1.027-2.264 1.541-3.709 1.541-1.445 0-2.682-.514-3.709-1.541C5.764 8.232 5.25 6.995 5.25 5.55c0-.945.238-1.824.715-2.637-1.79.914-3.277 2.293-4.465 4.137 1.04 1.602 2.342 2.877 3.908 3.826A9.648 9.648 0 0 0 10.5 12.3a9.648 9.648 0 0 0 5.092-1.424c1.566-.949 2.869-2.224 3.908-3.826zm-8.438-4.5a.542.542 0 0 0-.164-.398.542.542 0 0 0-.398-.164c-.977 0-1.814.35-2.514 1.048-.699.7-1.049 1.537-1.049 2.514 0 .156.055.29.165.398.109.11.242.165.398.165.156 0 .29-.055.398-.165a.542.542 0 0 0 .164-.398c0-.672.239-1.246.715-1.723a2.348 2.348 0 0 1 1.723-.714c.156 0 .29-.055.398-.165a.542.542 0 0 0 .164-.398zM21 7.05c0 .266-.078.535-.234.809a12.432 12.432 0 0 1-4.412 4.318c-1.848 1.082-3.8 1.623-5.854 1.623-2.055 0-4.006-.543-5.854-1.629C2.8 11.085 1.328 9.648.234 7.86A1.622 1.622 0 0 1 0 7.05c0-.266.078-.535.234-.809C1.328 4.452 2.8 3.015 4.646 1.93 6.494.843 8.446.3 10.5.3c2.055 0 4.006.543 5.854 1.629 1.847 1.086 3.318 2.523 4.412 4.312.156.274.234.543.234.809z" fill="#000" fill-rule="evenodd"/></svg>