<svg width="17" height="14" viewBox="0 0 17 14" xmlns="http://www.w3.org/2000/svg"><title>chat_icon</title><path d="M14.472 5.076c.091.411.144.833.144 1.267 0 3.347-2.841 6.138-6.583 6.737a7 7 0 0 0 2.623.506c.89 0 1.731-.164 2.49-.449.962.328 2.011.413 2.88.413a7.382 7.382 0 0 1-.989-1.539c.962-.859 1.556-1.996 1.556-3.25 0-1.48-.827-2.8-2.121-3.685zM.763 12.143a.52.52 0 0 0 .46.278l.025-.001c.548-.026 1.64-.39 2.794-1.124.618.11 2.003.315 2.486.315 3.647 0 6.503-2.54 6.503-5.783 0-3.189-2.916-5.782-6.503-5.782S.027 2.638.027 5.827c0 1.484.653 2.918 1.803 3.992a7.724 7.724 0 0 1-1.018 1.767.52.52 0 0 0-.049.557zm.301-6.316c0-2.616 2.452-4.745 5.466-4.745 3.015 0 5.466 2.129 5.466 4.745 0 2.705-2.35 4.746-5.466 4.746-.41 0-2.04-.238-2.488-.332a.518.518 0 0 0-.393.075 8.68 8.68 0 0 1-1.229.682c.199-.373.37-.758.513-1.157a.52.52 0 0 0-.158-.575c-1.103-.907-1.711-2.13-1.711-3.439z" fill="#000" fill-rule="evenodd"/></svg>