<svg width="15" height="20" viewBox="0 0 15 20" xmlns="http://www.w3.org/2000/svg"><title>Group</title><path d="M13.75 10c.347 0 .642.122.885.365s.365.538.365.885v7.5c0 .347-.122.642-.365.885a1.205 1.205 0 0 1-.885.365H1.25c-.347 0-.642-.122-.885-.365A1.205 1.205 0 0 1 0 18.75v-7.5c0-.347.122-.642.365-.885S.903 10 1.25 10h.417V5.833c0-1.606.57-2.98 1.712-4.12C4.52.57 5.894 0 7.5 0c1.606 0 2.98.57 4.121 1.712 1.142 1.142 1.712 2.515 1.712 4.121a.8.8 0 0 1-.247.586.8.8 0 0 1-.586.248h-.833a.8.8 0 0 1-.586-.248.8.8 0 0 1-.248-.586c0-.92-.325-1.705-.976-2.356A3.212 3.212 0 0 0 7.5 2.5c-.92 0-1.706.326-2.357.977a3.212 3.212 0 0 0-.976 2.356V10h9.583z" fill="#000" fill-rule="evenodd"/></svg>