<svg width="15" height="16" viewBox="0 0 15 16" xmlns="http://www.w3.org/2000/svg"><title>Shape</title><path d="M12.873 12.237a6.671 6.671 0 0 1-1.122.094 6.616 6.616 0 0 1-3.438-.938A6.854 6.854 0 0 1 5.814 8.84a6.99 6.99 0 0 1-.918-3.513c0-1.334.354-2.574 1.06-3.72-1.366.416-2.483 1.212-3.35 2.386-.867 1.174-1.3 2.508-1.3 4.002 0 .904.173 1.767.52 2.59.347.824.81 1.532 1.392 2.127A6.585 6.585 0 0 0 5.3 14.134a6.23 6.23 0 0 0 2.535.532c.979 0 1.909-.214 2.79-.641a6.527 6.527 0 0 0 2.249-1.788zm2.07-.886a7.822 7.822 0 0 1-2.892 3.383A7.543 7.543 0 0 1 7.834 16a7.482 7.482 0 0 1-3.04-.636 7.895 7.895 0 0 1-2.499-1.71 8.089 8.089 0 0 1-1.673-2.553A7.934 7.934 0 0 1 0 7.995c0-1.063.196-2.08.587-3.048a7.952 7.952 0 0 1 1.59-2.518A7.801 7.801 0 0 1 4.58.715 7.657 7.657 0 0 1 7.538 0c.3-.014.507.122.622.406.123.285.072.535-.153.75A5.54 5.54 0 0 0 6.666 3.05a5.702 5.702 0 0 0-.464 2.277c0 1.028.248 1.977.744 2.845a5.593 5.593 0 0 0 2.02 2.064c.85.507 1.778.761 2.785.761.802 0 1.577-.177 2.325-.532.279-.125.524-.08.735.136a.651.651 0 0 1 .178.354.683.683 0 0 1-.046.396z" fill="#000" fill-rule="evenodd"/></svg>