<svg width="72" height="60" viewBox="0 0 72 60" xmlns="http://www.w3.org/2000/svg"><title>photo camera</title><g fill="#FFF" fill-rule="evenodd"><path d="M66.241 12.6H56.012l-4.8-12H20.788l-4.8 12H14.4v-6H7.2v6H5.759A5.764 5.764 0 0 0 0 18.359V53.6c0 3.198 2.602 5.8 5.8 5.8h60.4c3.198 0 5.8-2.602 5.8-5.8V18.36a5.764 5.764 0 0 0-5.759-5.759zM9.6 9H12v3.6H9.6V9zm60 44.6c0 1.876-1.525 3.4-3.4 3.4H5.8a3.404 3.404 0 0 1-3.4-3.4V18.36A3.363 3.363 0 0 1 5.759 15h11.853l4.8-12h27.176l4.8 12H66.24a3.363 3.363 0 0 1 3.359 3.359V53.6z"/><path d="M36 11.4c-11.91 0-21.6 9.69-21.6 21.6 0 11.91 9.69 21.6 21.6 21.6 11.91 0 21.6-9.69 21.6-21.6 0-11.91-9.69-21.6-21.6-21.6zm0 40.8c-10.586 0-19.2-8.614-19.2-19.2 0-10.586 8.614-19.2 19.2-19.2 10.586 0 19.2 8.614 19.2 19.2 0 10.586-8.614 19.2-19.2 19.2z"/><path d="M36 18.6c-7.94 0-14.4 6.46-14.4 14.4S28.06 47.4 36 47.4 50.4 40.94 50.4 33 43.94 18.6 36 18.6zM36 45c-6.617 0-12-5.383-12-12s5.383-12 12-12 12 5.383 12 12-5.383 12-12 12zM62.4 17.4a4.805 4.805 0 0 0-4.8 4.8c0 2.647 2.153 4.8 4.8 4.8s4.8-2.153 4.8-4.8-2.153-4.8-4.8-4.8zm0 7.2a2.402 2.402 0 0 1-2.4-2.4c0-1.324 1.076-2.4 2.4-2.4 1.324 0 2.4 1.076 2.4 2.4 0 1.324-1.076 2.4-2.4 2.4z"/></g></svg>