<svg width="18" height="18" viewBox="0 0 18 18" xmlns="http://www.w3.org/2000/svg"><title>Shape</title><path d="M12.462 7.615c0-1.334-.475-2.475-1.423-3.423-.948-.949-2.09-1.423-3.424-1.423s-2.475.474-3.423 1.423c-.949.948-1.423 2.09-1.423 3.423 0 1.335.474 2.476 1.423 3.424.948.948 2.09 1.423 3.423 1.423 1.335 0 2.476-.475 3.424-1.423.948-.948 1.423-2.09 1.423-3.424zm5.538 9c0 .375-.137.7-.411.974a1.33 1.33 0 0 1-.974.411c-.389 0-.714-.137-.973-.411l-3.71-3.7a7.407 7.407 0 0 1-4.317 1.342c-1.03 0-2.017-.2-2.958-.6a7.614 7.614 0 0 1-2.434-1.623A7.614 7.614 0 0 1 .6 10.574C.2 9.633 0 8.647 0 7.615c0-1.03.2-2.017.6-2.958.4-.941.941-1.753 1.623-2.434A7.614 7.614 0 0 1 4.657.6C5.598.2 6.584 0 7.615 0c1.032 0 2.018.2 2.959.6.941.4 1.752.941 2.434 1.623a7.614 7.614 0 0 1 1.622 2.434c.4.941.6 1.927.6 2.958a7.407 7.407 0 0 1-1.34 4.316l3.71 3.71c.267.268.4.592.4.974z" fill="#000" fill-rule="evenodd"/></svg>