<?xml version="1.0" encoding="UTF-8"?>
<svg width="13px" height="8px" viewBox="0 0 13 8" version="1.1" xmlns="http://www.w3.org/2000/svg" xmlns:xlink="http://www.w3.org/1999/xlink">
    <!-- Generator: Sketch 41.2 (35397) - http://www.bohemiancoding.com/sketch -->
    <title>angle down copy</title>
    <desc>Created with Sketch.</desc>
    <defs></defs>
    <g id="Design" stroke="none" stroke-width="1" fill="none" fill-rule="evenodd">
        <g id="profile-edit-2" transform="translate(-337.000000, -444.000000)" fill="#000000">
            <g id="angle-down-copy" transform="translate(337.000000, 444.000000)">
                <path d="M12.3612015,1.35551927 C12.3612015,1.46103927 12.3206167,1.55438327 12.239448,1.635552 L6.56574691,7.30925309 C6.48457818,7.39042182 6.39123345,7.43100655 6.28571418,7.43100655 C6.18019491,7.43100655 6.08685091,7.39042182 6.00568145,7.30925309 L0.331980364,1.635552 C0.250811636,1.55438327 0.210226909,1.46103927 0.210226909,1.35551927 C0.210226909,1.25 0.250811636,1.156656 0.331980364,1.07548727 L0.940746909,0.466720727 C1.02191564,0.385552 1.11525964,0.344967273 1.22077891,0.344967273 C1.32629891,0.344967273 1.41964291,0.385552 1.50081164,0.466720727 L6.28571418,5.25162327 L11.0706167,0.466720727 C11.1517855,0.385552 11.2451302,0.344967273 11.3506495,0.344967273 C11.4561687,0.344967273 11.5495127,0.385552 11.6306822,0.466720727 L12.239448,1.07548727 C12.3206167,1.156656 12.3612015,1.25 12.3612015,1.35551927 L12.3612015,1.35551927 Z" id="Shape"></path>
            </g>
        </g>
    </g>
</svg>