<?xml version="1.0" encoding="UTF-8"?>
<svg width="21px" height="17px" viewBox="0 0 21 17" version="1.1" xmlns="http://www.w3.org/2000/svg" xmlns:xlink="http://www.w3.org/1999/xlink">
    <!-- Generator: Sketch 41.2 (35397) - http://www.bohemiancoding.com/sketch -->
    <title>list</title>
    <desc>Created with Sketch.</desc>
    <defs></defs>
    <g id="Design" stroke="none" stroke-width="1" fill="none" fill-rule="evenodd">
        <g id="People" transform="translate(-1389.000000, -82.000000)" fill="#000000">
            <g id="list" transform="translate(1389.000000, 82.000000)">
                <path d="M2.91428552,14.0614283 L2.91428552,16.2471428 C2.91428552,16.3458033 2.87823668,16.4311827 2.80613832,16.5032811 C2.73403996,16.5753794 2.64866052,16.6114283 2.55,16.6114283 L0.36428552,16.6114283 C0.265625,16.6114283 0.18024556,16.5753794 0.1081472,16.5032811 C0.03604884,16.4311827 0,16.3458033 0,16.2471428 L0,14.0614283 C0,13.9627678 0.03604884,13.8773883 0.1081472,13.80529 C0.18024556,13.7331923 0.265625,13.6971428 0.36428552,13.6971428 L2.55,13.6971428 C2.64866052,13.6971428 2.73403996,13.7331923 2.80613832,13.80529 C2.87823668,13.8773883 2.91428552,13.9627678 2.91428552,14.0614283 L2.91428552,14.0614283 Z M2.91428552,9.69 L2.91428552,11.8757145 C2.91428552,11.974375 2.87823668,12.0597544 2.80613832,12.1318528 C2.73403996,12.2039512 2.64866052,12.24 2.55,12.24 L0.36428552,12.24 C0.265625,12.24 0.18024556,12.2039512 0.1081472,12.1318528 C0.03604884,12.0597544 0,11.974375 0,11.8757145 L0,9.69 C0,9.59133948 0.03604884,9.50596004 0.1081472,9.43386168 C0.18024556,9.36176332 0.265625,9.32571448 0.36428552,9.32571448 L2.55,9.32571448 C2.64866052,9.32571448 2.73403996,9.36176332 2.80613832,9.43386168 C2.87823668,9.50596004 2.91428552,9.59133948 2.91428552,9.69 L2.91428552,9.69 Z M2.91428552,5.31857172 L2.91428552,7.50428552 C2.91428552,7.60294672 2.87823668,7.68832616 2.80613832,7.76042384 C2.73403996,7.8325222 2.64866052,7.86857172 2.55,7.86857172 L0.36428552,7.86857172 C0.265625,7.86857172 0.18024556,7.8325222 0.1081472,7.76042384 C0.03604884,7.68832616 0,7.60294672 0,7.50428552 L0,5.31857172 C0,5.21991052 0.03604884,5.13453108 0.1081472,5.06243272 C0.18024556,4.99033504 0.265625,4.95428552 0.36428552,4.95428552 L2.55,4.95428552 C2.64866052,4.95428552 2.73403996,4.99033504 2.80613832,5.06243272 C2.87823668,5.13453108 2.91428552,5.21991052 2.91428552,5.31857172 L2.91428552,5.31857172 Z M20.4,14.0614283 L20.4,16.2471428 C20.4,16.3458033 20.3639512,16.4311827 20.2918528,16.5032811 C20.2197544,16.5753794 20.134375,16.6114283 20.0357145,16.6114283 L4.73571448,16.6114283 C4.63705328,16.6114283 4.55167384,16.5753794 4.47957616,16.5032811 C4.4074778,16.4311827 4.37142828,16.3458033 4.37142828,16.2471428 L4.37142828,14.0614283 C4.37142828,13.9627678 4.4074778,13.8773883 4.47957616,13.80529 C4.55167384,13.7331923 4.63705328,13.6971428 4.73571448,13.6971428 L20.0357145,13.6971428 C20.134375,13.6971428 20.2197544,13.7331923 20.2918528,13.80529 C20.3639512,13.8773883 20.4,13.9627678 20.4,14.0614283 L20.4,14.0614283 Z M2.91428552,0.94714276 L2.91428552,3.13285724 C2.91428552,3.23151776 2.87823668,3.3168972 2.80613832,3.38899556 C2.73403996,3.46109392 2.64866052,3.49714276 2.55,3.49714276 L0.36428552,3.49714276 C0.265625,3.49714276 0.18024556,3.46109392 0.1081472,3.38899556 C0.03604884,3.3168972 0,3.23151776 0,3.13285724 L0,0.94714276 C0,0.84848224 0.03604884,0.7631028 0.1081472,0.69100444 C0.18024556,0.61890608 0.265625,0.58285724 0.36428552,0.58285724 L2.55,0.58285724 C2.64866052,0.58285724 2.73403996,0.61890608 2.80613832,0.69100444 C2.87823668,0.7631028 2.91428552,0.84848224 2.91428552,0.94714276 L2.91428552,0.94714276 Z M20.4,9.69 L20.4,11.8757145 C20.4,11.974375 20.3639512,12.0597544 20.2918528,12.1318528 C20.2197544,12.2039512 20.134375,12.24 20.0357145,12.24 L4.73571448,12.24 C4.63705328,12.24 4.55167384,12.2039512 4.47957616,12.1318528 C4.4074778,12.0597544 4.37142828,11.974375 4.37142828,11.8757145 L4.37142828,9.69 C4.37142828,9.59133948 4.4074778,9.50596004 4.47957616,9.43386168 C4.55167384,9.36176332 4.63705328,9.32571448 4.73571448,9.32571448 L20.0357145,9.32571448 C20.134375,9.32571448 20.2197544,9.36176332 20.2918528,9.43386168 C20.3639512,9.50596004 20.4,9.59133948 20.4,9.69 L20.4,9.69 Z M20.4,5.31857172 L20.4,7.50428552 C20.4,7.60294672 20.3639512,7.68832616 20.2918528,7.76042384 C20.2197544,7.8325222 20.134375,7.86857172 20.0357145,7.86857172 L4.73571448,7.86857172 C4.63705328,7.86857172 4.55167384,7.8325222 4.47957616,7.76042384 C4.4074778,7.68832616 4.37142828,7.60294672 4.37142828,7.50428552 L4.37142828,5.31857172 C4.37142828,5.21991052 4.4074778,5.13453108 4.47957616,5.06243272 C4.55167384,4.99033504 4.63705328,4.95428552 4.73571448,4.95428552 L20.0357145,4.95428552 C20.134375,4.95428552 20.2197544,4.99033504 20.2918528,5.06243272 C20.3639512,5.13453108 20.4,5.21991052 20.4,5.31857172 L20.4,5.31857172 Z M20.4,0.94714276 L20.4,3.13285724 C20.4,3.23151776 20.3639512,3.3168972 20.2918528,3.38899556 C20.2197544,3.46109392 20.134375,3.49714276 20.0357145,3.49714276 L4.73571448,3.49714276 C4.63705328,3.49714276 4.55167384,3.46109392 4.47957616,3.38899556 C4.4074778,3.3168972 4.37142828,3.23151776 4.37142828,3.13285724 L4.37142828,0.94714276 C4.37142828,0.84848224 4.4074778,0.7631028 4.47957616,0.69100444 C4.55167384,0.61890608 4.63705328,0.58285724 4.73571448,0.58285724 L20.0357145,0.58285724 C20.134375,0.58285724 20.2197544,0.61890608 20.2918528,0.69100444 C20.3639512,0.7631028 20.4,0.84848224 20.4,0.94714276 L20.4,0.94714276 Z" id="Shape"></path>
            </g>
        </g>
    </g>
</svg>