<?xml version="1.0" encoding="UTF-8"?>
<svg width="21px" height="17px" viewBox="0 0 21 17" version="1.1" xmlns="http://www.w3.org/2000/svg" xmlns:xlink="http://www.w3.org/1999/xlink">
    <!-- Generator: Sketch 41.2 (35397) - http://www.bohemiancoding.com/sketch -->
    <title>align justify</title>
    <desc>Created with Sketch.</desc>
    <defs></defs>
    <g id="Design" stroke="none" stroke-width="1" fill="none" fill-rule="evenodd">
        <g id="People" transform="translate(-1353.000000, -82.000000)" fill="#000000">
            <g id="align-justify" transform="translate(1353.000000, 82.000000)">
                <path d="M20.4,14.4257145 L20.4,15.8828572 C20.4,16.0801783 20.3279016,16.2509378 20.1837056,16.3951339 C20.0395089,16.5393306 19.86875,16.6114283 19.6714283,16.6114283 L0.72857172,16.6114283 C0.53125,16.6114283 0.36049112,16.5393306 0.2162944,16.3951339 C0.07209836,16.2509378 0,16.0801783 0,15.8828572 L0,14.4257145 C0,14.2283928 0.07209836,14.0576339 0.2162944,13.9134378 C0.36049112,13.7692411 0.53125,13.6971428 0.72857172,13.6971428 L19.6714283,13.6971428 C19.86875,13.6971428 20.0395089,13.7692411 20.1837056,13.9134378 C20.3279016,14.0576339 20.4,14.2283928 20.4,14.4257145 L20.4,14.4257145 Z M20.4,10.0542855 L20.4,11.5114283 C20.4,11.70875 20.3279016,11.8795089 20.1837056,12.0237056 C20.0395089,12.1679016 19.86875,12.24 19.6714283,12.24 L0.72857172,12.24 C0.53125,12.24 0.36049112,12.1679016 0.2162944,12.0237056 C0.07209836,11.8795089 0,11.70875 0,11.5114283 L0,10.0542855 C0,9.85696448 0.07209836,9.6862056 0.2162944,9.54200888 C0.36049112,9.39781216 0.53125,9.32571448 0.72857172,9.32571448 L19.6714283,9.32571448 C19.86875,9.32571448 20.0395089,9.39781216 20.1837056,9.54200888 C20.3279016,9.6862056 20.4,9.85696448 20.4,10.0542855 L20.4,10.0542855 Z M20.4,5.68285724 L20.4,7.14 C20.4,7.33732172 20.3279016,7.5080806 20.1837056,7.65227664 C20.0395089,7.79647336 19.86875,7.86857172 19.6714283,7.86857172 L0.72857172,7.86857172 C0.53125,7.86857172 0.36049112,7.79647336 0.2162944,7.65227664 C0.07209836,7.5080806 0,7.33732172 0,7.14 L0,5.68285724 C0,5.48553552 0.07209836,5.31477664 0.2162944,5.1705806 C0.36049112,5.02638388 0.53125,4.95428552 0.72857172,4.95428552 L19.6714283,4.95428552 C19.86875,4.95428552 20.0395089,5.02638388 20.1837056,5.1705806 C20.3279016,5.31477664 20.4,5.48553552 20.4,5.68285724 L20.4,5.68285724 Z M20.4,1.31142828 L20.4,2.76857172 C20.4,2.96589276 20.3279016,3.13665164 20.1837056,3.28084836 C20.0395089,3.4250444 19.86875,3.49714276 19.6714283,3.49714276 L0.72857172,3.49714276 C0.53125,3.49714276 0.36049112,3.4250444 0.2162944,3.28084836 C0.07209836,3.13665164 0,2.96589276 0,2.76857172 L0,1.31142828 C0,1.11410724 0.07209836,0.94334836 0.2162944,0.79915164 C0.36049112,0.6549556 0.53125,0.58285724 0.72857172,0.58285724 L19.6714283,0.58285724 C19.86875,0.58285724 20.0395089,0.6549556 20.1837056,0.79915164 C20.3279016,0.94334836 20.4,1.11410724 20.4,1.31142828 L20.4,1.31142828 Z" id="Shape"></path>
            </g>
        </g>
    </g>
</svg>